<?xml version="1.0" encoding="UTF-8"?>
<svg width="342px" height="110px" viewBox="0 0 342 110" version="1.1" xmlns="http://www.w3.org/2000/svg" xmlns:xlink="http://www.w3.org/1999/xlink">
    <!-- Generator: Sketch 61 (89581) - https://sketch.com -->
    <title>Artboard Copy 6</title>
    <desc>Created with Sketch.</desc>
    <g id="Artboard-Copy-6" stroke="none" stroke-width="1" fill="none" fill-rule="evenodd" fill-opacity="0.2">
        <g id="circleLight1" fill="#FFFFFF" fill-rule="nonzero">
            <path d="M54.4109345,-6.67910063e-13 C24.251997,0.10847636 -0.1092833,24.647362 1.37134748e-12,54.8062995 C0.110020732,84.9683259 24.6489064,109.328062 54.8078439,109.220312 C84.9667815,109.108758 109.329606,84.5714165 109.218789,54.4109345 C109.110302,24.2504526 84.5714164,-0.109283277 54.4109345,-6.67910063e-13 M54.4371892,6.82626172 C80.7845609,6.72929597 102.297978,28.0882731 102.392507,54.4356448 C102.487938,80.7845609 81.1305053,102.296433 54.7831336,102.392507 C28.4357619,102.487938 6.92234527,81.1305053 6.82473794,54.7831336 C6.73084034,28.4342175 28.0882731,6.92080089 54.4371892,6.82626172" id="Fill-1"></path>
            <path d="M165.109713,4 C151.746067,4.04803489 140.950748,14.9205728 141,28.2857636 C141.048045,41.6478656 151.920583,52.4416394 165.28423,52.3939218 C178.64942,52.3458869 189.443194,41.473349 189.395477,28.1081582 C189.345897,14.7460562 178.473359,3.95228242 165.109713,4 M165.179211,23.155246 C167.959121,23.144474 170.227837,25.3977457 170.237142,28.177656 C170.247914,30.9575662 167.994642,33.2278263 165.214732,33.2386655 C162.436366,33.2479034 160.166106,30.9961761 160.155267,28.2162658 C160.146029,25.4363556 162.3993,23.1660955 165.179211,23.155246" id="Fill-4"></path>
            <path d="M242.993874,41 C229.695092,41.0480356 218.952283,51.8680641 219,65.1683903 C219.048036,78.4687165 229.869609,89.2099809 243.16839,89.1622641 C256.468717,89.1126841 267.209981,78.2926556 267.16073,64.9938737 C267.112684,51.6950919 256.292656,40.9522832 242.993874,41 M243.009318,45.0139066 C254.073361,44.9738867 263.108069,53.9437305 263.148357,65.0077733 C263.188377,76.0733605 254.220078,85.1096133 243.154491,85.1483574 C232.087359,85.1883774 223.054195,76.220078 223.012373,65.1544908 C222.973887,54.0889036 231.94373,45.0541952 243.009318,45.0139066" id="Fill-6"></path>
            <path d="M242.497329,48 C233.352969,48.0325387 225.967674,55.4718874 226,64.6162478 C226.034083,73.7590638 233.473432,81.1443587 242.616248,81.1104988 C251.760608,81.0779497 259.145903,73.6401454 259.113577,64.495785 C259.079494,55.3529691 251.640145,47.9676741 242.497329,48 M242.511229,52.0138961 C249.427028,51.9877332 255.074879,57.5938856 255.09967,64.5096846 C255.1243,71.4254835 249.518147,77.0717902 242.602348,77.0981263 C235.686549,77.1227552 230.040243,71.5181472 230.01544,64.6008039 C229.989278,57.6850049 235.59543,52.0386983 242.511229,52.0138961" id="Fill-8"></path>
            <path d="M341.443342,40.1344127 C341.49106,53.5104143 330.686475,64.3953074 317.308929,64.4433421 C303.932928,64.4910598 293.048035,53.6864753 293,40.3089293 C292.952282,26.9329278 303.756867,16.0480347 317.134413,16 C330.510414,15.9522823 341.395307,26.7568668 341.443342,40.1344127" id="Fill-11"></path>
        </g>
    </g>
</svg>